<svg xmlns="http://www.w3.org/2000/svg" viewBox="0 0 128 128">
  <rect width="128" height="128" rx="24" fill="#000000"/>
  <g transform="translate(32, 32)">
    <path fill="#FFFFFF" d="M32 8C18.745 8 8 18.745 8 32v32c0 13.255 10.745 24 24 24h32c13.255 0 24-10.745 24-24V32c0-13.255-10.745-24-24-24H32zM44 64c0-2.21 1.79-4 4-4h4v-4c0-2.21 1.79-4 4-4s4 1.79 4 4v4h4c2.21 0 4 1.79 4 4s-1.79 4-4 4h-4v4c0 2.21-1.79 4-4 4s-4-1.79-4-4v-4h-4c-2.21 0-4-1.79-4-4z"/>
    <circle fill="#FFFFFF" cx="56" cy="40" r="8"/>
    <path fill="#FFFFFF" d="M60 28c2.21 0 4-1.79 4-4s-1.79-4-4-4-4 1.79-4 4 1.79 4 4 4z"/>
  </g>
</svg>
